<svg width="289" height="201" viewBox="0 0 289 201" fill="none" xmlns="http://www.w3.org/2000/svg">
<path d="M219.39 113.35C230.933 113.35 240.29 103.156 240.29 90.58C240.29 78.0045 230.933 67.81 219.39 67.81C207.847 67.81 198.49 78.0045 198.49 90.58C198.49 103.156 207.847 113.35 219.39 113.35Z" fill="black"/>
<path d="M267.24 200.06C256.79 200.06 250.82 191.85 250.82 184.01C250.82 175.43 256.79 169.08 266.5 167.21C272.47 166.09 276.95 163.1 276.95 156.76C276.95 151.5 273.93 146.58 269.91 142.56C266.87 139.52 261.87 139.46 258.8 142.47C248.1 152.93 234.3 159.38 219.1 159.38C185.51 159.38 159.01 129.15 159.01 90.33C159.01 82.45 160.27 74.89 162.2 67.65C162.54 66.36 162.6 65.02 162.28 63.73C159.06 50.61 152.09 38.08 140.71 38.08C125.03 38.08 122.79 56.74 121.67 77.64L120.92 94.06C118.68 140.72 112.34 178.41 66.43 178.41C23.89 178.41 0 136.23 0 90.33C0 44.43 18.29 0 59.35 0C75.03 0 86.97 8.21 86.97 20.9C86.97 29.11 82.12 36.2 72.79 36.2C60.1 36.2 56.74 26.87 44.05 26.87C18.3 26.87 9.34 55.98 9.34 90.32C9.34 128.39 26.51 161.24 58.61 161.24C81 161.24 90.34 144.07 92.2 107.12L94.07 69.05C95.19 46.28 99.3 15.68 126.92 15.68C141.75 15.68 154.18 27.01 161.72 41.18C164.48 46.38 171.44 47.13 175.16 42.57C185.9 29.44 201.37 21.28 219.11 21.28C253.08 21.28 279.2 51.51 279.2 90.33C279.2 102.96 276.26 114.8 271.28 124.92C269.81 127.92 270.36 131.66 272.8 133.95C283.81 144.27 288.53 158.43 288.53 171.7C288.53 187 279.95 200.07 267.26 200.07L267.24 200.06ZM168.33 90.33C168.33 119.44 190.35 130.64 219.09 130.64C247.83 130.64 269.85 119.44 269.85 90.33C269.85 61.22 247.83 50.02 219.09 50.02C190.35 50.02 168.33 61.22 168.33 90.33Z" fill="black"/>
</svg>
