<svg width="717" height="144" viewBox="0 0 717 144" fill="none" xmlns="http://www.w3.org/2000/svg">
<path d="M392.04 102.21H386.25C382.88 102.21 379.96 102.3 376.43 102.83C374.82 103.07 373.3 101.98 373 100.38L372.77 99.1402C372.35 96.8602 369.62 95.8602 367.85 97.3602C363.26 101.26 357.54 103.75 350.82 103.75C334.59 103.75 322.16 89.2102 322.16 70.7202C322.16 52.2302 334.58 38.1102 351.38 38.1102C356.86 38.1102 361.87 39.9402 365.83 42.4802C367.82 43.7502 370.43 42.2302 370.43 39.8702V16.2302C370.43 6.49023 366.05 4.80023 359 4.80023H358.01V1.55023C364.57 1.55023 370.43 1.35023 376.78 0.430234C378.64 0.160234 380.32 1.56023 380.32 3.43023V86.8102C380.32 97.4002 384.41 98.9502 392.04 98.9502V102.21ZM352.23 99.5202C359.83 99.5202 365.54 95.7402 369.71 90.9302C370.19 90.3802 370.44 89.6602 370.44 88.9302V52.9402C370.44 52.3002 370.27 51.6702 369.88 51.1502C366.55 46.6302 359.98 42.3502 352.65 42.3502C339.66 42.3502 333.45 54.6302 333.45 70.7202C333.45 86.8102 339.66 99.5202 352.23 99.5202Z" fill="black"/>
<path d="M396.7 99.3802L398.96 99.1002C407.15 98.1102 409.12 97.8302 409.12 85.1202V55.3302C409.12 45.5902 404.74 43.9002 397.69 43.9002H396.7V40.6502C403.26 40.6502 409.12 40.4502 415.47 39.5302C417.33 39.2602 419.01 40.6602 419.01 42.5302V85.1102C419.01 97.8202 420.99 98.1002 429.17 99.0902L431.43 99.3702V102.62L414.07 102.2L396.71 102.62V99.3702L396.7 99.3802ZM404.46 13.8302C404.46 9.03023 407.42 5.22023 412.37 5.22023C417.73 5.22023 420.28 9.03023 420.28 13.8302C420.28 18.6302 417.74 22.4402 412.37 22.4402C407.43 22.4402 404.46 18.6302 404.46 13.8302Z" fill="black"/>
<path d="M509.91 42.6302C509.91 46.5802 506.8 48.8402 503.84 48.8402C500.59 48.8402 498.19 46.5802 497.49 42.9102C497.07 40.6502 495.94 38.9602 493.54 38.9602C491.55 38.9602 489.69 40.1002 488.17 41.6202C487.02 42.7702 487 44.6602 488.13 45.8202C492.09 49.8702 494.52 55.0902 494.52 60.8302C494.52 73.5402 483.09 83.5602 468.4 83.5602C465.42 83.5602 462.56 83.0802 459.82 82.3502C459.33 82.2202 458.82 82.2002 458.34 82.3202C453.38 83.5402 448.64 86.1702 448.64 90.4802C448.64 96.4102 455.7 97.2602 463.6 97.6802L469.81 97.9602C487.46 98.8102 501.71 101.21 501.71 118.57C501.71 134.66 485.76 143.7 468.39 143.7C451.02 143.7 434.23 136.78 434.23 121.25C434.23 115.32 437.34 110.8 442.14 110.8C445.25 110.8 447.93 112.64 447.93 116.16C447.93 120.96 444.4 122.23 444.4 127.03C444.4 136.77 455.41 140.16 468.4 140.16C482.8 140.16 495.22 133.67 495.22 121.53C495.22 113.06 488.73 109.53 474.75 108.82L460.35 108.11C451.74 107.69 440.16 106.13 440.16 95.6902C440.16 90.0802 444.45 85.3802 449.8 82.5302C451.77 81.4802 452.05 78.8502 450.33 77.4502C445.36 73.3902 442.28 67.5402 442.28 60.8302C442.28 47.9802 453.71 38.1002 468.4 38.1002C473.18 38.1002 477.65 39.2102 481.48 41.0902C482.61 41.6502 484.03 41.4402 484.89 40.5202C488.79 36.3602 494.15 34.5702 499.17 34.5702C504.96 34.5702 509.9 37.8202 509.9 42.6202L509.91 42.6302ZM468.41 80.0402C479.42 80.0402 483.66 71.7102 483.66 60.8402C483.66 49.9702 479.42 41.6402 468.41 41.6402C457.4 41.6402 453.16 49.9702 453.16 60.8402C453.16 71.7102 457.4 80.0402 468.41 80.0402Z" fill="black"/>
<path d="M548.51 99.3802L550.77 99.1002C558.96 98.1102 560.93 97.8302 560.93 85.1202V56.8902C560.93 47.4302 555.85 42.3502 546.95 42.3502C536.96 42.3502 529.89 50.1802 527.28 56.3102C527.11 56.7002 527.05 57.1102 527.05 57.5302V85.1202C527.05 97.8302 529.03 98.1102 537.21 99.1002L539.47 99.3802V102.63L522.11 102.21L511.04 102.63L508.74 99.3802L511 99.1002C512.33 98.7902 517.16 97.8302 517.16 85.1202L517.14 50.1002C519.26 50.1002 517.16 50.4302 523.51 49.5202C525.37 49.2502 530.1 46.5202 532.09 44.8202C536.61 40.9602 542.73 38.1102 550.06 38.1102C562.91 38.1102 570.81 44.8902 570.81 56.8902V85.1202C570.81 97.8302 572.79 98.1102 580.97 99.1002L583.23 99.3802V102.63L565.87 102.21L548.51 102.63V99.3802Z" fill="black"/>
<path d="M584.38 72.2802C584.38 52.6602 598.5 38.1202 615.72 38.1202C623.37 38.1202 629.5 41.0502 633.51 45.9802C634.62 47.3402 636.61 47.5202 637.89 46.3202C643.37 41.1902 650.66 38.1202 658.49 38.1202C672.89 38.1202 681.64 48.2802 681.64 63.2502C681.64 65.5102 681.36 67.0602 681.22 67.6302H595.81C595.67 68.9002 595.67 70.1702 595.67 71.5802C595.67 86.6802 603.01 99.5302 617.27 99.5302C626.02 99.5302 633.22 94.5902 637.03 84.7102L640.42 85.9802C636.47 97.8402 628.14 103.77 615.29 103.77C596.66 103.77 584.37 90.7802 584.37 72.2902L584.38 72.2802ZM614.03 64.3702C626.74 64.3702 629.42 59.1502 629.42 54.9102C629.42 46.7202 622.64 41.6402 615.73 41.6402C605.23 41.6402 598.91 49.0802 596.67 60.6902C596.3 62.5902 597.74 64.3702 599.67 64.3702H614.04H614.03ZM617.98 7.90023C619.53 1.97023 621.79 -0.00976562 624.05 -0.00976562C626.31 -0.00976562 628.43 1.68023 628.43 5.07023C628.43 8.46023 626.31 11.5602 626.03 11.9902L615.58 28.7902H612.47L617.98 7.90023ZM656.8 64.3702C669.51 64.3702 672.19 59.1502 672.19 54.9102C672.19 46.7202 665.41 41.6402 658.5 41.6402C647.87 41.6402 641.65 49.0802 639.43 60.6902C639.07 62.5802 640.5 64.3602 642.43 64.3602H656.8V64.3702Z" fill="black"/>
<path d="M681.71 100.37C680.3 99.6602 679.45 99.2402 678.89 99.2402C678.04 99.2402 677.76 99.5202 677.2 102.2H673.95L674.51 92.8802L674.93 80.8802H678.04L678.18 83.2802C678.6 91.1902 685.94 100.5 696.67 100.5C704.29 100.5 709.52 96.2602 709.52 89.3502C709.52 83.2802 704.44 79.4702 695.97 76.2202L690.89 74.2402C681.01 70.4302 676.07 65.2102 676.07 56.3102C676.07 45.1602 684.96 38.1002 694.85 38.1002C699.51 38.1002 702.76 39.5102 705.01 40.6402C706.14 41.2002 706.85 41.3502 707.41 41.3502C708.54 41.3502 709.1 40.3602 709.67 38.3902L712.78 38.5302L712.22 47.6102C712.22 47.6702 712.22 47.7302 712.22 47.8002V57.5902H708.97C707.7 48.7002 703.04 41.2102 694.29 41.2102C688.08 41.2102 683.28 45.5902 683.28 51.6602C683.28 57.7302 687.94 61.1202 695.7 64.0802L701.21 66.2002C712.64 70.5802 716.46 76.5102 716.46 84.9802C716.46 95.0002 709.4 103.76 696.7 103.76C689.5 103.76 684.56 101.64 681.74 100.37H681.71Z" fill="black"/>
<path d="M0 99.3802L2.26 99.1002C10.45 98.1102 12.42 97.8302 12.42 85.1202V16.2302C12.42 6.49023 8.05 4.80023 0.99 4.80023H0V1.55023C6.56 1.55023 12.42 1.35023 18.77 0.430234C20.63 0.160234 22.31 1.56023 22.31 3.43023V85.1202C22.31 97.8302 24.29 98.1102 32.47 99.1002L34.73 99.3802V102.63L17.37 102.21L0.01 102.63V99.3802H0Z" fill="black"/>
<path d="M74.11 103.76C55.48 103.76 43.19 90.7702 43.19 72.2802C43.19 52.6602 57.31 38.1202 74.53 38.1202C88.93 38.1202 97.68 48.2802 97.68 63.2502C97.68 65.5102 97.4 67.0602 97.26 67.6302H54.63C54.49 68.9002 54.49 70.1702 54.49 71.5802C54.49 86.6802 61.83 99.5302 76.09 99.5302C84.84 99.5302 92.04 94.5902 95.85 84.7102L99.24 85.9802C95.29 97.8402 86.96 103.77 74.11 103.77V103.76ZM72.84 64.3702C85.55 64.3702 88.23 59.1502 88.23 54.9102C88.23 46.7202 81.45 41.6402 74.54 41.6402C64.04 41.6402 57.72 49.0802 55.48 60.6902C55.11 62.5902 56.55 64.3702 58.48 64.3702H72.85H72.84Z" fill="black"/>
<path d="M119.15 100.37C117.74 99.6602 116.89 99.2402 116.33 99.2402C115.48 99.2402 115.2 99.5202 114.64 102.2H111.39L111.95 92.8802L112.37 80.8802H115.48L115.62 83.2802C116.04 91.1902 123.38 100.5 134.11 100.5C141.73 100.5 146.96 96.2602 146.96 89.3502C146.96 83.2802 141.88 79.4702 133.41 76.2202L128.33 74.2402C118.45 70.4302 113.51 65.2102 113.51 56.3102C113.51 45.1602 122.4 38.1002 132.29 38.1002C136.95 38.1002 140.2 39.5102 142.45 40.6402C143.58 41.2002 144.29 41.3502 144.85 41.3502C145.98 41.3502 146.54 40.3602 147.11 38.3902L150.22 38.5302L149.66 47.6102C149.66 47.6702 149.66 47.7302 149.66 47.8002V57.5902H146.41C145.14 48.7002 140.48 41.2102 131.73 41.2102C125.52 41.2102 120.72 45.5902 120.72 51.6602C120.72 57.7302 125.38 61.1202 133.14 64.0802L138.65 66.2002C150.08 70.5802 153.9 76.5102 153.9 84.9802C153.9 95.0002 146.84 103.76 134.14 103.76C126.94 103.76 122 101.64 119.18 100.37H119.15Z" fill="black"/>
<path d="M202.29 99.3802L204.55 99.1002C212.74 98.1102 214.71 97.8302 214.71 85.1202V55.3302C214.71 45.5902 210.33 43.9002 203.28 43.9002H202.29V40.6502C208.85 40.6502 214.71 40.4502 221.06 39.5302C222.92 39.2602 224.6 40.6602 224.6 42.5302V85.1102C224.6 97.8202 226.58 98.1002 234.76 99.0902L237.02 99.3702V102.62L219.66 102.2L202.3 102.62V99.3702L202.29 99.3802ZM210.05 13.8302C210.05 9.03023 213.01 5.22023 217.96 5.22023C223.32 5.22023 225.87 9.03023 225.87 13.8302C225.87 18.6302 223.33 22.4402 217.96 22.4402C213.02 22.4402 210.05 18.6302 210.05 13.8302Z" fill="black"/>
<path d="M286.15 99.3802L288.41 99.1002C296.6 98.1102 298.57 97.8302 298.57 85.1202V56.8902C298.57 47.4302 293.49 42.3502 284.59 42.3502C274.6 42.3502 267.53 50.1802 264.92 56.3102C264.75 56.7002 264.69 57.1102 264.69 57.5302V85.1202C264.69 97.8302 266.67 98.1102 274.85 99.1002L277.11 99.3802V102.63L259.75 102.21L242.39 102.63V99.3802L244.65 99.1002C252.84 98.1102 254.81 97.8302 254.81 85.1202V55.3302C254.81 45.5902 250.43 43.9002 243.38 43.9002H242.39V40.6502C248.95 40.6502 254.81 40.4502 261.16 39.5302C263.02 39.2602 264.7 40.6602 264.7 42.5302C264.7 45.1502 267.75 46.5102 269.74 44.8102C274.26 40.9502 280.38 38.1002 287.71 38.1002C300.56 38.1002 308.46 44.8802 308.46 56.8802V85.1102C308.46 97.8202 310.44 98.1002 318.62 99.0902L320.88 99.3702V102.62L303.52 102.2L286.16 102.62V99.3702L286.15 99.3802Z" fill="black"/>
</svg>
